M48
; DRILL file KiCad 10.0.6 date 2026-09-06T15:08:44
; FORMAT={-:-/ absolute / metric / decimal}
; #@! TF.CreationDate,2026-09-06T15:08:44+05:30
; #@! TF.GenerationSoftware,Kicad,Pcbnew,10.0.6
; #@! TF.FileFunction,Plated,1,2,PTH
FMAT,2
METRIC
; #@! TA.AperFunction,Plated,PTH,ViaDrill
T1C0.300
; #@! TA.AperFunction,Plated,PTH,ComponentDrill
T2C1.000
%
G90
G05
T1
X197.0Y-134.0
X199.0Y-141.0
X199.0Y-144.0
X202.0Y-147.0
X213.0Y-136.0
X214.0Y-143.0
X215.0Y-152.0
X217.0Y-148.0
X220.0Y-134.0
X220.0Y-138.0
X220.0Y-143.0
X221.0Y-138.0
X224.0Y-133.0
X224.0Y-144.0
X227.0Y-150.0
X229.0Y-139.0
T2
X233.0Y-132.46
X233.0Y-135.0
X233.0Y-137.54
X233.0Y-140.08
X233.0Y-142.62
X233.0Y-145.16
X233.0Y-147.7
X233.0Y-150.24
X233.0Y-152.78
M30
